PathFileType	4	(X/Y/Z)	D:\TRACE\spotREDO_2-26-24\spot_baseline_4-platform.trc
DataRate	CameraRate	NumFrames	NumMarkers	Units	OrigDataRate	OrigDataStartFrame	OrigNumFrames
100.00	100.00	      70	5	mm	100.00	1	      7000
Frame#	Time	Left_Front			Right_Front			Left_Aft			Right_Aft			Post			
		X1	Y1	Z1	X2	Y2	Z2	X3	Y3	Z3	X4	Y4	Z4	X5	Y5	Z5	

1	0.000	-696.86707	-3.89269	-575.66101	718.25208	4.89998	-490.74396	-768.15027	4.83480	643.56104	801.30481	11.10638	647.48334	4.24246	741.46136	-982.79144	
2	0.010	-696.88837	-3.88414	-575.67334	718.23712	4.87559	-490.79169	-768.14722	4.77427	643.56366	801.34314	11.40759	647.79401	4.31697	741.44330	-982.73981	
3	0.020	-696.89484	-3.87620	-575.67108	718.20282	4.84210	-490.76755	-768.13354	4.75808	643.53809	801.22272	11.37274	647.83752	4.35340	741.42468	-982.78864	
4	0.030	-696.90582	-3.89599	-575.65399	718.18524	4.83727	-490.79279	-768.16125	4.74839	643.57458	801.21234	11.34335	647.82532	5.08781	741.32343	-982.85577	
5	0.040	-696.87811	-3.90935	-575.65369	718.20874	4.84397	-490.81131	-768.12714	4.76114	643.55090	801.22803	11.04839	647.45972	4.67751	741.33972	-982.87268	
6	0.050	-696.86621	-3.90222	-575.67389	718.25690	4.88832	-490.75037	-768.13715	4.77642	643.56219	801.27716	11.40446	647.84991	4.64116	741.39288	-982.94769	
7	0.060	-696.83545	-3.94723	-575.69806	718.27557	4.91681	-490.68253	-768.13055	4.76127	643.55127	801.32037	11.43620	647.82605	4.68653	741.38733	-982.97913	
8	0.070	-696.83057	-3.94827	-575.68372	718.25201	4.80305	-490.77533	-768.14124	4.79050	643.58215	801.21136	11.33380	647.78943	4.54666	741.34338	-982.98535	
9	0.080	-696.91162	-3.87719	-575.67798	718.21655	4.80829	-490.80389	-768.17657	4.76407	643.53741	801.28143	11.15153	647.50854	4.42679	741.32275	-983.03552	
10	0.090	-696.90942	-3.87396	-575.65442	718.20148	4.82742	-490.80798	-768.14154	4.75807	643.52411	801.27197	11.15336	647.51569	4.43297	741.32343	-982.99445	
11	0.100	-696.92322	-3.85173	-575.67194	718.23584	4.87689	-490.78876	-768.12085	4.77377	643.54858	801.28046	11.23588	647.56232	4.38330	741.38092	-982.98236	
12	0.110	-696.89990	-3.87746	-575.68353	718.09296	5.12718	-490.90253	-768.14911	4.78749	643.60675	801.32483	11.23951	647.59045	4.34507	741.40192	-982.95056	
13	0.120	-696.87561	-3.87642	-575.68243	718.26746	4.94514	-490.75577	-768.15485	4.77555	643.57465	801.32477	11.14369	647.54285	4.40356	741.40125	-982.93323	
14	0.130	-696.89038	-3.88770	-575.67926	718.22217	4.86466	-490.81830	-768.16675	4.75713	643.56500	801.19812	10.98388	647.45953	4.32469	741.45569	-982.87616	
15	0.140	-696.87445	-3.91894	-575.64380	718.18073	4.83768	-490.77911	-768.15692	4.74334	643.59106	801.22095	11.03184	647.47736	4.09288	741.45782	-982.89465	
16	0.150	-696.89313	-3.88486	-575.66803	718.21796	4.87021	-490.78857	-768.15637	4.74053	643.54553	801.26636	11.38123	647.82910	4.20063	741.48071	-982.84143	
17	0.160	-696.90497	-3.83807	-575.68304	718.25281	4.89033	-490.79422	-768.14935	4.78912	643.53296	801.29285	11.16292	647.52954	4.04144	741.49957	-982.82434	
18	0.170	-696.84961	-3.88686	-575.67889	718.09735	5.16290	-490.95605	-768.15100	4.79162	643.55231	801.30011	11.43441	647.80743	4.34590	741.42285	-982.84247	
19	0.180	-696.85046	-3.88894	-575.68414	718.21576	4.90931	-490.81213	-768.17981	4.79671	643.55432	801.33051	11.18464	647.54749	4.33404	741.42682	-982.87195	
20	0.190	-696.90283	-3.88393	-575.66455	718.17255	4.86201	-490.78186	-768.11182	4.75429	643.52820	801.21216	11.33261	647.83362	4.41838	741.37518	-982.90088	
21	0.200	-696.86108	-3.94738	-575.67847	718.24298	4.84795	-490.77524	-768.13812	4.75914	643.56018	801.29938	11.07222	647.54376	4.40789	741.35956	-982.97955	
22	0.210	-696.84772	-3.93467	-575.68085	718.17615	4.81244	-490.80154	-768.18597	4.73484	643.56348	801.20599	10.97410	647.49658	4.43117	741.33350	-983.02600	
23	0.220	-696.88312	-3.91281	-575.67987	718.12384	5.13388	-490.93466	-768.12677	4.74553	643.53650	801.32550	11.19922	647.60602	4.48405	741.32593	-983.01001	
24	0.230	-696.88269	-3.87782	-575.68677	718.26068	4.87761	-490.75882	-768.13971	4.81556	643.60522	801.27405	11.18025	647.53870	4.44719	741.35883	-983.06427	
25	0.240	-696.89496	-3.88072	-575.68427	718.22900	4.83070	-490.79504	-768.18195	4.79474	643.55298	801.22662	11.35278	647.82550	4.47984	741.33673	-983.05945	
26	0.250	-696.86462	-3.89102	-575.67487	718.05939	5.02095	-490.94403	-768.16113	4.74212	643.54596	801.13300	11.30556	647.80396	4.39380	741.40582	-983.00470	
27	0.260	-696.87091	-3.88787	-575.66766	718.05518	5.03371	-490.95895	-768.11578	4.74760	643.54474	801.34949	11.18775	647.52930	4.45784	741.35529	-982.95178	
28	0.270	-696.92725	-3.84809	-575.65198	718.26501	4.90076	-490.78198	-768.13495	4.76586	643.55188	801.33899	11.21760	647.56921	4.38768	741.40002	-982.92480	
29	0.280	-696.88745	-3.87004	-575.67975	718.12671	5.13510	-490.94110	-768.15991	4.79768	643.59619	801.35059	11.18673	647.55133	4.36852	741.41974	-982.84418	
30	0.290	-696.88324	-3.89705	-575.69177	718.26068	4.87296	-490.75781	-768.14191	4.79738	643.59198	801.29376	11.06419	647.51941	4.35897	741.40546	-982.80914	
31	0.300	-696.90228	-3.88495	-575.67352	718.23297	4.82527	-490.74960	-768.14410	4.77226	643.54895	801.22394	11.11295	647.52295	4.30337	741.43420	-982.79767	
32	0.310	-696.86670	-3.91811	-575.68262	718.16907	4.83544	-490.78583	-768.15222	4.78468	643.56061	801.22351	11.37894	647.86029	4.33091	741.40155	-982.82635	
33	0.320	-696.89423	-3.88875	-575.66919	718.22217	4.86018	-490.75290	-768.13074	4.76879	643.54865	801.25714	11.36770	647.81635	4.39905	741.44281	-982.84033	
34	0.330	-696.86353	-3.87322	-575.67694	718.10260	5.10492	-490.96069	-768.13141	4.80296	643.57031	801.33746	11.41003	647.84283	4.40557	741.40839	-982.93066	
35	0.340	-696.89319	-3.84260	-575.67029	718.24347	4.89332	-490.78125	-768.18488	4.78718	643.55487	801.28046	11.39448	647.81219	4.45270	741.40002	-982.96637	
36	0.350	-696.89563	-3.86402	-575.70239	718.25812	4.90859	-490.79352	-768.03833	4.91793	643.66473	801.30670	11.08262	647.49176	4.42275	741.37262	-983.03882	
37	0.360	-696.88831	-3.89140	-575.66425	718.17834	4.84767	-490.80493	-768.16656	4.76275	643.55670	801.24341	11.04595	647.56213	4.46565	741.35571	-983.05164	
38	0.370	-696.88251	-3.89175	-575.68347	718.22491	4.87216	-490.79330	-768.17065	4.79942	643.54919	801.21448	11.36778	647.84229	4.46180	741.35400	-983.04987	
39	0.380	-696.83820	-3.92206	-575.69696	718.28192	4.85331	-490.77542	-768.14075	4.75942	643.56445	801.37756	11.23344	647.56775	4.44909	741.36676	-982.98016	
40	0.390	-696.90588	-3.87965	-575.69379	718.24121	4.90256	-490.74051	-768.15979	4.79488	643.56342	801.33044	11.42214	647.81555	4.45268	741.34967	-982.97693	
41	0.400	-696.88507	-3.90291	-575.68427	718.09473	5.07121	-491.00296	-768.18768	4.81449	643.55420	801.26434	11.11210	647.47559	4.41310	741.36536	-982.92273	
42	0.410	-696.88922	-3.90825	-575.65887	718.20361	4.87682	-490.82248	-768.14935	4.76718	643.55780	801.22046	11.36574	647.79858	4.35780	741.40540	-982.89154	
43	0.420	-696.87006	-3.89488	-575.67401	718.06580	5.03911	-490.96652	-768.16693	4.77106	643.54492	801.27979	11.42413	647.81738	4.36467	741.39117	-982.85199	
44	0.430	-696.88348	-3.89321	-575.67749	718.22369	4.85292	-490.78101	-768.15662	4.74056	643.57599	801.36981	11.25634	647.63025	3.74785	741.39648	-982.85852	
45	0.440	-696.89294	-3.85876	-575.66473	718.09210	5.15695	-490.93515	-768.12939	4.77847	643.56378	801.25922	11.38022	647.85309	4.50003	741.42145	-982.88977	
46	0.450	-696.91675	-3.87164	-575.66614	718.25934	4.92329	-490.75772	-768.17267	4.79188	643.56415	801.21460	11.37698	647.84399	3.99849	741.49811	-982.88788	
47	0.460	-696.86316	-3.89863	-575.69568	718.27777	4.85220	-490.76904	-768.17615	4.79516	643.57111	801.28253	11.11470	647.53339	4.07046	741.47272	-982.89618	
48	0.470	-696.85809	-3.87601	-575.68365	718.22522	4.80223	-490.83725	-768.15820	4.79702	643.57758	801.38684	11.19773	647.54407	4.23117	741.45160	-982.92310	
49	0.480	-696.89600	-3.87387	-575.65649	718.07513	5.04386	-490.97253	-768.16016	4.77859	643.55975	801.29004	11.40651	647.83319	4.13319	741.43494	-982.92963	
50	0.490	-696.89954	-3.86526	-575.67792	718.10431	5.10005	-490.97879	-768.14709	4.83982	643.58624	801.31165	11.24518	647.59039	4.43264	741.42847	-982.94275	
51	0.500	-696.88489	-3.87878	-575.67517	718.07385	5.14212	-490.99310	-768.03815	4.93166	643.65692	801.32397	11.43145	647.84387	4.42482	741.40021	-982.98169	
52	0.510	-696.90460	-3.87275	-575.67865	718.08942	5.13231	-490.96481	-768.16663	4.79080	643.59375	801.15167	11.31625	647.79260	4.39614	741.38367	-983.02783	
53	0.520	-696.90228	-3.87111	-575.68903	718.11487	5.07711	-490.94186	-768.16827	4.79549	643.54065	801.23895	11.39440	647.82538	4.47745	741.38129	-982.99182	
54	0.530	-696.91626	-3.83290	-575.68634	718.21942	4.86475	-490.75818	-768.16864	4.72971	643.53961	801.27264	11.17330	647.61157	4.56355	741.35974	-982.99194	
55	0.540	-696.89050	-3.85840	-575.66595	718.09747	5.08085	-490.94031	-768.15698	4.76077	643.56818	801.22321	11.38174	647.85345	4.52896	741.38159	-982.95239	
56	0.550	-696.90826	-3.83574	-575.66565	718.22308	4.88821	-490.76776	-768.13269	4.74904	643.55939	801.35602	11.19555	647.57373	4.56739	741.40021	-982.90991	
57	0.560	-696.90497	-3.87073	-575.66772	718.20984	4.90792	-490.76852	-768.16571	4.78658	643.56140	801.32318	11.38056	647.81842	4.56776	741.41937	-982.86139	
58	0.570	-696.90015	-3.87861	-575.67474	718.23309	4.92598	-490.78976	-768.14758	4.79935	643.58459	801.22827	11.36598	647.79456	4.61576	741.37341	-982.83026	
59	0.580	-696.89697	-3.88456	-575.67261	718.22424	4.87120	-490.76443	-768.18488	4.78067	643.57318	801.21484	11.37159	647.81378	4.91761	741.37946	-982.81769	
60	0.590	-696.86230	-3.92343	-575.66760	718.09833	5.08464	-490.89386	-768.19086	4.77051	643.56158	801.20453	11.38770	647.83154	5.04883	741.36584	-982.80292	
61	0.600	-696.87164	-3.87072	-575.67450	718.11713	5.05714	-490.93515	-768.07294	4.91673	643.67822	801.14410	11.36904	647.82068	4.39829	741.38892	-982.86719	
62	0.610	-696.86316	-3.90280	-575.70026	718.09064	5.08514	-490.94537	-768.18872	4.81952	643.56403	801.27667	11.41076	647.83081	4.42038	741.38440	-982.88538	
63	0.620	-696.94672	-3.85865	-575.66833	718.10602	5.11696	-490.92029	-768.15051	4.78567	643.55499	801.25830	11.13565	647.49847	4.41705	741.39124	-982.89642	
64	0.630	-696.85907	-3.90176	-575.67841	718.22919	4.87509	-490.79205	-768.13763	4.78779	643.58710	801.31042	11.18850	647.53198	4.46272	741.39154	-982.92810	
65	0.640	-696.88257	-3.89584	-575.66229	718.18927	4.90140	-490.77344	-768.14435	4.77264	643.55347	801.27344	11.38620	647.83173	4.39070	741.38837	-982.98065	
66	0.650	-696.84662	-3.91299	-575.66864	718.22571	4.89417	-490.79489	-768.14368	4.78782	643.53699	801.23340	11.37708	647.80615	4.39175	741.40350	-982.97797	
67	0.660	-696.88892	-3.87855	-575.68817	718.23059	4.86024	-490.76480	-768.18817	4.79583	643.55316	801.20392	11.35525	647.81250	4.07117	741.46783	-982.97223	
68	0.670	-696.87000	-3.88182	-575.68927	718.09760	5.05099	-490.93118	-768.16650	4.79646	643.54883	801.28448	11.16378	647.49786	4.23354	741.48932	-982.93304	
69	0.680	-696.85510	-3.90817	-575.70142	718.19836	4.85590	-490.77103	-768.22015	4.81026	643.58636	801.23169	11.17793	647.54144	4.26280	741.43744	-982.90875	
70	0.690	-696.88245	-3.88932	-575.68402	718.25006	4.86974	-490.79065	-768.16565	4.78502	643.56201	801.31891	11.46970	647.84290	4.48713	741.44196	-982.85217	
